<svg width="26" height="24" viewBox="0 0 26 24" fill="none" xmlns="http://www.w3.org/2000/svg">
<path d="M25.64 13.2413C25.64 10.6927 23.6014 8.60484 21.0692 8.52047V4.72781C21.0692 4.62844 21.0298 4.53281 20.9591 4.4625L16.6011 0.109687C16.5663 0.0749097 16.525 0.0473231 16.4796 0.0285029C16.4341 0.00968262 16.3854 -2.66882e-06 16.3362 5.51632e-10H4.32406C4.11687 5.51632e-10 3.94906 0.167812 3.94906 0.375V2.41547H2.375C2.16781 2.41547 2 2.58328 2 2.79047V23.625C2 23.8322 2.16781 24 2.375 24H18.4184C18.6256 24 18.7934 23.8322 18.7934 23.625V22.0533H20.6947C20.9019 22.0533 21.0697 21.8855 21.0697 21.6783V17.9634C23.6014 17.8791 25.64 15.7898 25.64 13.2413Z" fill="#D3D3D3"/>
<path d="M12.7523 2.53125H6.76538C6.55819 2.53125 6.39038 2.69906 6.39038 2.90625V8.88562C6.39038 9.09281 6.55819 9.26062 6.76538 9.26062H12.7523C12.9594 9.26062 13.1273 9.09281 13.1273 8.88562V2.90625C13.1273 2.69906 12.959 2.53125 12.7523 2.53125Z" fill="white"/>
<path d="M10.5007 6.74626H10.2078C10.5926 6.57423 10.8612 6.18892 10.8612 5.74033C10.8612 5.13189 10.3676 4.63876 9.75823 4.63876C9.14886 4.63876 8.65526 5.13189 8.65526 5.74033C8.65526 6.18892 8.92339 6.57423 9.3087 6.74626H9.01573C8.25214 6.75283 7.62964 7.37861 7.62964 8.14267V9.26064H11.8868V8.14267C11.8873 7.37861 11.2643 6.75283 10.5007 6.74626Z" fill="#FFCEBF"/>
<path d="M18.2535 7.20889H14.4871C14.2799 7.20889 14.1121 7.04108 14.1121 6.83389C14.1121 6.62671 14.2799 6.45889 14.4871 6.45889H18.2535C18.4607 6.45889 18.6285 6.62671 18.6285 6.83389C18.6285 7.04108 18.4602 7.20889 18.2535 7.20889ZM18.2535 9.26061H14.4871C14.2799 9.26061 14.1121 9.0928 14.1121 8.88561C14.1121 8.67842 14.2799 8.51061 14.4871 8.51061H18.2535C18.4607 8.51061 18.6285 8.67842 18.6285 8.88561C18.6285 9.0928 18.4602 9.26061 18.2535 9.26061ZM14.0399 19.522H6.76538C6.55819 19.522 6.39038 19.3542 6.39038 19.147C6.39038 18.9398 6.55819 18.772 6.76538 18.772H14.0399C14.2471 18.772 14.4149 18.9398 14.4149 19.147C14.4149 19.3542 14.2471 19.522 14.0399 19.522Z" fill="white"/>
<path d="M4.32406 22.0533C4.11687 22.0533 3.94906 21.8855 3.94906 21.6783V2.41548H2.375C2.16781 2.41548 2 2.58329 2 2.79048V23.625C2 23.8322 2.16781 24 2.375 24H18.4184C18.6256 24 18.7934 23.8322 18.7934 23.625V22.0533H4.32406ZM16.6011 0.109699C16.5663 0.0750283 16.525 0.0475738 16.4795 0.0289115C16.4341 0.0102493 16.3854 0.00074667 16.3363 0.000949216V4.3997C16.3363 4.58111 16.4834 4.72829 16.6648 4.72829H21.0688C21.0688 4.63079 21.0312 4.5347 20.9595 4.46298L16.6011 0.109699Z" fill="#F97316"/>
<path d="M10.5007 6.74625H10.2078C10.0704 6.80765 9.91855 6.84187 9.75823 6.84187C9.59792 6.84187 9.44604 6.80765 9.3087 6.74625H9.01573C8.25214 6.75281 7.62964 7.37859 7.62964 8.14265V9.26062H11.8868V8.14265C11.8873 7.37859 11.2643 6.75281 10.5007 6.74625Z" fill="#82AEE3"/>
<path d="M20.9104 17.9663C23.5157 17.9663 25.64 15.8428 25.64 13.2413C25.64 10.6397 23.5157 8.51767 20.9104 8.51767C18.305 8.51767 16.1807 10.6397 16.1807 13.2413C16.1807 15.8428 18.3055 17.9663 20.9104 17.9663Z" fill="#F97316"/>
<path d="M6.76538 13.365H16.1826C16.1816 13.3238 16.1812 13.2825 16.1812 13.2413C16.1812 13.0289 16.1957 12.8199 16.2229 12.615H6.76538C6.55819 12.615 6.39038 12.7828 6.39038 12.99C6.39038 13.1972 6.55819 13.365 6.76538 13.365ZM6.76538 11.3133H16.5941C16.7127 11.0499 16.8552 10.7986 17.0184 10.5633H6.76538C6.55819 10.5633 6.39038 10.7311 6.39038 10.9383C6.39038 11.1455 6.55819 11.3133 6.76538 11.3133ZM17.7149 16.7194H6.76538C6.55819 16.7194 6.39038 16.8872 6.39038 17.0944C6.39038 17.3016 6.55819 17.4694 6.76538 17.4694H18.0421C18.1991 17.4694 18.3337 17.3728 18.3894 17.2355C18.149 17.0836 17.9235 16.9106 17.7149 16.7194ZM6.76538 15.4177H16.7151C16.5904 15.1786 16.4854 14.9283 16.4024 14.6677H6.76538C6.55819 14.6677 6.39038 14.8355 6.39038 15.0427C6.39038 15.2499 6.55819 15.4177 6.76538 15.4177Z" fill="white"/>
<path d="M18.838 12.1195C18.5755 11.8575 18.5755 11.4338 18.838 11.1717C19.0991 10.9111 19.5233 10.9111 19.7858 11.1717L20.9103 12.2949L22.0349 11.1717C22.296 10.9111 22.7202 10.9111 22.9827 11.1717C23.2452 11.4338 23.2452 11.8575 22.9827 12.1195L21.8581 13.2417L22.9827 14.3649C23.2452 14.6269 23.2452 15.0506 22.9827 15.3127C22.7202 15.5733 22.296 15.5733 22.0349 15.3127L20.9103 14.1895L19.7858 15.3127C19.5233 15.5733 19.0991 15.5733 18.838 15.3127C18.5755 15.0506 18.5755 14.6269 18.838 14.3649L19.9616 13.2417L18.838 12.1195Z" fill="#ECEFF1"/>
</svg>
