<svg width="24" height="24" viewBox="0 0 24 24" fill="none" xmlns="http://www.w3.org/2000/svg">
<g clip-path="url(#clip0_6213_129)">
<path d="M16.4168 7.5825C16.3286 7.49191 16.2187 7.42534 16.0976 7.38912C15.9764 7.35289 15.848 7.3482 15.7246 7.3755L3.4433 10.2105C3.15766 10.2763 2.89709 10.4232 2.69293 10.6335C2.48876 10.8438 2.34968 11.1086 2.29241 11.3961C2.23513 11.6836 2.2621 11.9815 2.37008 12.254C2.47805 12.5265 2.66243 12.762 2.90105 12.9323L4.5233 14.124L1.4153 17.2313C0.990242 17.658 0.751587 18.2358 0.751587 18.8381C0.751587 19.4405 0.990242 20.0182 1.4153 20.445L3.55505 22.5848C3.98859 22.9968 4.56383 23.2265 5.16193 23.2265C5.76003 23.2265 6.33527 22.9968 6.7688 22.5848L9.91055 19.4798L11.0678 21.099C11.2382 21.3376 11.4737 21.5219 11.7463 21.6298C12.0188 21.7377 12.3167 21.7647 12.6042 21.7074C12.8917 21.6501 13.1566 21.5111 13.367 21.307C13.5774 21.1029 13.7244 20.8424 13.7903 20.5568L16.6238 8.2755C16.6512 8.15192 16.6466 8.02338 16.6104 7.90209C16.5742 7.7808 16.5075 7.67079 16.4168 7.5825Z" fill="#F97316"/>
<path d="M8.78554 18.3547L5.64379 21.4598C5.21706 21.8846 4.63943 22.1231 4.03729 22.1231C3.43514 22.1231 2.85751 21.8846 2.43079 21.4598L3.55579 22.5848C3.9851 23.0049 4.56193 23.2403 5.16266 23.2403C5.76339 23.2403 6.34022 23.0049 6.76954 22.5848L9.72304 19.6658L8.78554 18.3547ZM16.425 7.575C16.3351 7.48496 16.2238 7.41926 16.1015 7.3841C15.9792 7.34893 15.85 7.34546 15.726 7.374L15.4328 7.44225L12.6653 19.4318C12.6168 19.6429 12.5237 19.8412 12.3923 20.0134C12.2608 20.1857 12.0941 20.3278 11.9033 20.4304C11.7125 20.5329 11.5019 20.5935 11.2858 20.608C11.0697 20.6226 10.8529 20.5908 10.65 20.5148L11.067 21.099C11.2374 21.3376 11.473 21.5219 11.7455 21.6298C12.0181 21.7377 12.316 21.7647 12.6035 21.7074C12.891 21.6501 13.1558 21.5111 13.3662 21.307C13.5766 21.1029 13.7236 20.8424 13.7895 20.5568L16.6238 8.2755C16.6529 8.15147 16.6499 8.02207 16.6151 7.89951C16.5804 7.77695 16.5149 7.66527 16.425 7.575Z" fill="#E55F02"/>
<path d="M19.1123 5.63775C18.964 5.63772 18.819 5.59372 18.6957 5.5113C18.5724 5.42889 18.4763 5.31177 18.4195 5.17474C18.3628 5.03772 18.3479 4.88694 18.3768 4.74148C18.4058 4.59601 18.4772 4.46239 18.582 4.3575L20.1915 2.748C20.333 2.61138 20.5224 2.53579 20.7191 2.5375C20.9157 2.53921 21.1038 2.61808 21.2429 2.75714C21.3819 2.89619 21.4608 3.0843 21.4625 3.28095C21.4642 3.4776 21.3886 3.66705 21.252 3.8085L19.6425 5.418C19.5019 5.55866 19.3112 5.63771 19.1123 5.63775Z" fill="black"/>
<path d="M19.1122 5.63025C18.965 5.6292 18.8213 5.58484 18.6991 5.50268C18.5769 5.42053 18.4816 5.30423 18.4251 5.16827C18.3685 5.03231 18.3532 4.88272 18.3811 4.73814C18.409 4.59357 18.4789 4.4604 18.582 4.35525L20.1915 2.74575C20.3329 2.60913 20.5224 2.53354 20.719 2.53525C20.9157 2.53695 21.1038 2.61583 21.2428 2.75489C21.3819 2.89394 21.4608 3.08205 21.4625 3.2787C21.4642 3.47535 21.3886 3.6648 21.252 3.80625L19.6425 5.418C19.5006 5.55592 19.31 5.63221 19.1122 5.63025Z" fill="#DDDDDD"/>
<path d="M13.7468 5.63775C13.5479 5.63771 13.3571 5.55866 13.2165 5.418L11.607 3.8085C11.5354 3.73932 11.4782 3.65656 11.4389 3.56505C11.3996 3.47355 11.3789 3.37514 11.3781 3.27555C11.3772 3.17597 11.3962 3.07721 11.4339 2.98504C11.4716 2.89286 11.5273 2.80912 11.5977 2.73871C11.6681 2.66829 11.7519 2.6126 11.8441 2.57489C11.9362 2.53717 12.035 2.5182 12.1346 2.51906C12.2342 2.51993 12.3326 2.54062 12.4241 2.57993C12.5156 2.61923 12.5983 2.67637 12.6675 2.748L14.277 4.3575C14.3819 4.46239 14.4533 4.59601 14.4822 4.74148C14.5111 4.88694 14.4963 5.03772 14.4395 5.17474C14.3828 5.31177 14.2867 5.42889 14.1634 5.5113C14.0401 5.59372 13.8951 5.63772 13.7468 5.63775Z" fill="black"/>
<path d="M13.7468 5.63775C13.6478 5.64132 13.5492 5.62355 13.4577 5.58563C13.3662 5.54771 13.284 5.49054 13.2165 5.418L11.607 3.8085C11.5354 3.73932 11.4782 3.65656 11.4389 3.56505C11.3996 3.47355 11.3789 3.37514 11.3781 3.27555C11.3772 3.17597 11.3962 3.07721 11.4339 2.98504C11.4716 2.89286 11.5273 2.80912 11.5977 2.73871C11.6681 2.66829 11.7519 2.6126 11.8441 2.57489C11.9362 2.53717 12.035 2.5182 12.1346 2.51906C12.2342 2.51993 12.3326 2.54062 12.4241 2.57993C12.5156 2.61923 12.5983 2.67637 12.6675 2.748L14.277 4.3575C14.3745 4.46508 14.4394 4.59813 14.4642 4.74117C14.489 4.88421 14.4727 5.03136 14.4172 5.16549C14.3616 5.29961 14.2691 5.41521 14.1504 5.49881C14.0318 5.58242 13.8918 5.6306 13.7468 5.63775Z" fill="#DDDDDD"/>
<path d="M20.7217 12.6127C20.5228 12.6127 20.3321 12.5337 20.1915 12.393L18.582 10.7835C18.5104 10.7143 18.4532 10.6316 18.4139 10.5401C18.3746 10.4486 18.3539 10.3501 18.3531 10.2506C18.3522 10.151 18.3712 10.0522 18.4089 9.96003C18.4466 9.86786 18.5023 9.78412 18.5727 9.7137C18.6431 9.64328 18.7269 9.58759 18.819 9.54988C18.9112 9.51217 19.01 9.4932 19.1095 9.49406C19.2091 9.49493 19.3075 9.51562 19.399 9.55492C19.4906 9.59423 19.5733 9.65137 19.6425 9.723L21.252 11.3325C21.3569 11.4374 21.4283 11.571 21.4572 11.7165C21.4861 11.8619 21.4713 12.0127 21.4145 12.1497C21.3577 12.2868 21.2616 12.4039 21.1383 12.4863C21.015 12.5687 20.8701 12.6127 20.7217 12.6127Z" fill="black"/>
<path d="M20.7217 12.606C20.5238 12.6078 20.3332 12.5312 20.1915 12.393L18.582 10.7835C18.5104 10.7143 18.4532 10.6316 18.4139 10.5401C18.3746 10.4486 18.3539 10.3501 18.3531 10.2506C18.3522 10.151 18.3712 10.0522 18.4089 9.96003C18.4466 9.86786 18.5023 9.78412 18.5727 9.7137C18.6431 9.64328 18.7269 9.58759 18.819 9.54988C18.9112 9.51217 19.01 9.4932 19.1095 9.49406C19.2091 9.49493 19.3075 9.51562 19.399 9.55492C19.4906 9.59423 19.5733 9.65137 19.6425 9.723L21.252 11.3325C21.3546 11.4377 21.424 11.5708 21.4516 11.7151C21.4792 11.8594 21.4638 12.0087 21.4073 12.1443C21.3508 12.28 21.2558 12.396 21.1339 12.4781C21.012 12.5602 20.8687 12.6047 20.7217 12.606Z" fill="#DDDDDD"/>
<path d="M16.4294 4.52625C16.2305 4.52625 16.0398 4.44723 15.8991 4.30658C15.7585 4.16593 15.6794 3.97516 15.6794 3.77625V1.5C15.6794 1.30109 15.7585 1.11032 15.8991 0.96967C16.0398 0.829018 16.2305 0.75 16.4294 0.75C16.6284 0.75 16.8191 0.829018 16.9598 0.96967C17.1004 1.11032 17.1794 1.30109 17.1794 1.5V3.77625C17.1794 3.97516 17.1004 4.16593 16.9598 4.30658C16.8191 4.44723 16.6284 4.52625 16.4294 4.52625Z" fill="black"/>
<path d="M16.4294 4.52625C16.2305 4.52625 16.0398 4.44723 15.8991 4.30658C15.7585 4.16593 15.6794 3.97516 15.6794 3.77625V1.5C15.6794 1.30109 15.7585 1.11032 15.8991 0.96967C16.0398 0.829018 16.2305 0.75 16.4294 0.75C16.6284 0.75 16.8191 0.829018 16.9598 0.96967C17.1004 1.11032 17.1794 1.30109 17.1794 1.5V3.77625C17.1794 3.97516 17.1004 4.16593 16.9598 4.30658C16.8191 4.44723 16.6284 4.52625 16.4294 4.52625Z" fill="#DDDDDD"/>
<path d="M22.5 8.3205H20.2238C20.0248 8.3205 19.8341 8.24148 19.6934 8.10083C19.5528 7.96018 19.4738 7.76941 19.4738 7.5705C19.4738 7.37159 19.5528 7.18082 19.6934 7.04017C19.8341 6.89952 20.0248 6.8205 20.2238 6.8205H22.5C22.6989 6.8205 22.8897 6.89952 23.0303 7.04017C23.171 7.18082 23.25 7.37159 23.25 7.5705C23.25 7.76941 23.171 7.96018 23.0303 8.10083C22.8897 8.24148 22.6989 8.3205 22.5 8.3205Z" fill="black"/>
<path d="M22.5 8.3205H20.2238C20.0248 8.3205 19.8341 8.24148 19.6934 8.10083C19.5528 7.96018 19.4738 7.76941 19.4738 7.5705C19.4738 7.37159 19.5528 7.18082 19.6934 7.04017C19.8341 6.89952 20.0248 6.8205 20.2238 6.8205H22.5C22.6989 6.8205 22.8897 6.89952 23.0303 7.04017C23.171 7.18082 23.25 7.37159 23.25 7.5705C23.25 7.76941 23.171 7.96018 23.0303 8.10083C22.8897 8.24148 22.6989 8.3205 22.5 8.3205Z" fill="#DDDDDD"/>
</g>
<defs>
<clipPath id="clip0_6213_129">
<rect width="24" height="24" fill="white"/>
</clipPath>
</defs>
</svg>
