<svg width="24" height="24" viewBox="0 0 24 24" fill="none" xmlns="http://www.w3.org/2000/svg">
<g clip-path="url(#clip0_6213_180)">
<path d="M21.7038 9.77986C19.2585 11.2804 17.4526 8.07516 17.4526 8.07516C15.363 3.68935 16.4524 1.58222 16.4524 1.58222C16.4524 1.58222 13.7008 1.15566 13.7008 4.34831C13.7008 4.37475 13.7006 4.40094 13.7001 4.42688C13.6583 6.69141 10.5818 7.29975 9.67821 5.22286C9.60562 5.05555 9.54222 4.88441 9.48827 4.71019C8.72121 2.24752 11.2756 1.86789e-06 11.2756 1.86789e-06C11.1075 -0.000734947 10.9403 0.0223059 10.7787 0.0684394C7.72783 0.692252 5.54632 4.97583 7.36441 7.59028C7.42565 7.67846 7.48361 7.76886 7.53818 7.86131C8.00608 8.65941 8.16429 10.0131 7.02865 10.2655C5.31049 10.6473 5.25715 7.63158 5.27786 7.59417C2.4851 9.84549 2.78022 15.4969 2.78022 15.4969C2.78022 19.5021 6.01685 24 12.1446 24C24.6216 24 21.7038 9.77986 21.7038 9.77986Z" fill="#FF9F41"/>
<path d="M12.1446 24C8.70938 24 6.18282 22.5864 4.6261 20.6384C5.34446 21.2111 6.14811 21.6679 7.00782 21.9919C6.3533 21.3903 5.5711 20.2874 5.2658 18.3404C5.2658 18.3404 7.98047 22.1528 11.2757 22.5086C15.9973 23.0186 18.1671 19.6618 19.6465 16.5602C19.6733 17.2248 19.7249 17.6554 19.7249 17.6554C19.7249 17.6554 21.0024 16.3481 21.1224 14.039C21.2016 12.6058 21.396 11.1813 21.7037 9.77935C21.7037 9.77935 24.6218 24 12.1446 24Z" fill="#FF8641"/>
<path d="M12.3223 22.5918C15.9636 22.5918 18.9154 19.64 18.9154 15.9987C18.9154 12.3574 15.9636 9.40552 12.3223 9.40552C8.68098 9.40552 5.72913 12.3574 5.72913 15.9987C5.72913 19.64 8.68098 22.5918 12.3223 22.5918Z" fill="#E05353"/>
<path d="M17.8035 16.8851C18.2942 13.856 16.2363 11.0026 13.2071 10.512C10.178 10.0214 7.32463 12.0793 6.83402 15.1085C6.3434 18.1376 8.40129 20.9909 11.4304 21.4815C14.4596 21.9722 17.3129 19.9143 17.8035 16.8851Z" fill="#FFF4F6"/>
<path d="M12.3426 12.8293H12.302C12.1844 12.8293 12.089 12.9247 12.089 13.0423V16.019C12.089 16.1366 12.1844 16.232 12.302 16.232H12.3426C12.4603 16.232 12.5556 16.1366 12.5556 16.019V13.0423C12.5556 12.9247 12.4603 12.8293 12.3426 12.8293Z" fill="#F97316"/>
<path d="M12.4817 16.287L12.4818 16.2869C12.5729 16.1958 12.5729 16.0481 12.4818 15.957L10.8721 14.3473C10.781 14.2562 10.6333 14.2562 10.5421 14.3473L10.5421 14.3474C10.451 14.4385 10.451 14.5862 10.5421 14.6773L12.1518 16.287C12.2429 16.3781 12.3906 16.3781 12.4817 16.287Z" fill="#F97316"/>
<path d="M17.2652 16.2056H16.3237C16.2687 16.2056 16.2159 16.1838 16.177 16.1449C16.1381 16.106 16.1163 16.0532 16.1163 15.9982C16.1163 15.9432 16.1381 15.8904 16.177 15.8515C16.2159 15.8126 16.2687 15.7908 16.3237 15.7908H17.2652C17.3202 15.7908 17.373 15.8126 17.4119 15.8515C17.4508 15.8904 17.4726 15.9432 17.4726 15.9982C17.4726 16.0532 17.4508 16.106 17.4119 16.1449C17.373 16.1838 17.3202 16.2056 17.2652 16.2056ZM8.32155 16.2056H7.35513C7.30012 16.2056 7.24736 16.1838 7.20846 16.1449C7.16956 16.106 7.14771 16.0532 7.14771 15.9982C7.14771 15.9432 7.16956 15.8904 7.20846 15.8515C7.24736 15.8126 7.30012 15.7908 7.35513 15.7908H8.32155C8.37656 15.7908 8.42932 15.8126 8.46822 15.8515C8.50712 15.8904 8.52897 15.9432 8.52897 15.9982C8.52897 16.0532 8.50712 16.106 8.46822 16.1449C8.42932 16.1838 8.37656 16.2056 8.32155 16.2056ZM12.3094 21.1612C12.2544 21.1612 12.2017 21.1393 12.1628 21.1004C12.1239 21.0615 12.102 21.0087 12.102 20.9537V19.9998C12.102 19.9448 12.1239 19.8921 12.1628 19.8532C12.2017 19.8143 12.2544 19.7924 12.3094 19.7924C12.3645 19.7924 12.4172 19.8143 12.4561 19.8532C12.495 19.8921 12.5169 19.9448 12.5169 19.9998V20.9537C12.5169 20.981 12.5115 21.0079 12.5011 21.0331C12.4906 21.0583 12.4754 21.0811 12.4561 21.1004C12.4368 21.1197 12.414 21.1349 12.3888 21.1454C12.3636 21.1558 12.3367 21.1612 12.3094 21.1612ZM12.3094 12.2051C12.2544 12.2051 12.2017 12.1832 12.1628 12.1443C12.1239 12.1054 12.102 12.0527 12.102 11.9977V11.0438C12.102 10.9887 12.1239 10.936 12.1628 10.8971C12.2017 10.8582 12.2544 10.8363 12.3094 10.8363C12.3645 10.8363 12.4172 10.8582 12.4561 10.8971C12.495 10.936 12.5169 10.9887 12.5169 11.0438V11.9977C12.5169 12.0249 12.5115 12.0519 12.5011 12.077C12.4906 12.1022 12.4754 12.1251 12.4561 12.1443C12.4368 12.1636 12.414 12.1789 12.3888 12.1893C12.3636 12.1997 12.3367 12.2051 12.3094 12.2051ZM8.80581 19.7095C8.7648 19.7095 8.72472 19.6973 8.69062 19.6745C8.65653 19.6517 8.62996 19.6193 8.61427 19.5814C8.59857 19.5435 8.59447 19.5018 8.60246 19.4616C8.61046 19.4214 8.6302 19.3844 8.65919 19.3554L9.3415 18.6731C9.38055 18.635 9.43304 18.6139 9.48759 18.6142C9.54215 18.6145 9.59437 18.6364 9.63295 18.6749C9.67152 18.7135 9.69334 18.7657 9.69368 18.8203C9.69402 18.8748 9.67285 18.9273 9.63475 18.9664L8.95244 19.6487C8.93323 19.668 8.91038 19.6833 8.88521 19.6938C8.86004 19.7042 8.83306 19.7095 8.80581 19.7095ZM15.1436 13.3717C15.1026 13.3716 15.0625 13.3595 15.0284 13.3367C14.9943 13.3139 14.9677 13.2815 14.952 13.2436C14.9364 13.2057 14.9322 13.164 14.9402 13.1238C14.9482 13.0836 14.968 13.0466 14.997 13.0176L15.6669 12.3478C15.7059 12.3097 15.7584 12.2885 15.813 12.2888C15.8675 12.2892 15.9197 12.311 15.9583 12.3496C15.9969 12.3882 16.0187 12.4404 16.019 12.4949C16.0194 12.5495 15.9982 12.602 15.9601 12.641L15.2902 13.3109C15.271 13.3302 15.2482 13.3455 15.223 13.3559C15.1978 13.3664 15.1708 13.3717 15.1436 13.3717ZM9.48813 13.3841C9.46087 13.3842 9.43388 13.3788 9.40871 13.3683C9.38355 13.3579 9.3607 13.3425 9.3415 13.3232L8.65919 12.6409C8.62109 12.6018 8.59992 12.5493 8.60026 12.4948C8.6006 12.4402 8.62242 12.388 8.661 12.3494C8.69957 12.3109 8.75179 12.289 8.80635 12.2887C8.8609 12.2884 8.91339 12.3095 8.95244 12.3476L9.63475 13.0299C9.66374 13.0589 9.68348 13.0959 9.69148 13.1361C9.69948 13.1763 9.69537 13.218 9.67968 13.2559C9.66398 13.2938 9.63741 13.3262 9.60332 13.349C9.56922 13.3718 9.52914 13.384 9.48813 13.384V13.3841ZM15.8135 19.7095C15.7862 19.7095 15.7592 19.7042 15.7341 19.6937C15.7089 19.6832 15.6861 19.6679 15.6669 19.6485L14.997 18.9787C14.9589 18.9397 14.9377 18.8872 14.938 18.8326C14.9384 18.7781 14.9602 18.7258 14.9988 18.6873C15.0374 18.6487 15.0896 18.6269 15.1441 18.6265C15.1987 18.6262 15.2512 18.6474 15.2902 18.6855L15.9601 19.3553C15.9891 19.3843 16.0088 19.4213 16.0168 19.4615C16.0248 19.5017 16.0207 19.5434 16.005 19.5813C15.9893 19.6192 15.9628 19.6516 15.9287 19.6744C15.8946 19.6972 15.8545 19.7093 15.8135 19.7093V19.7095Z" fill="#E05353"/>
<path d="M17.872 4.76743C17.872 4.76743 17.3882 6.2183 18.5974 7.09646C19.3481 7.65317 19.9944 8.33825 20.5065 9.12005C20.5065 9.12005 21.0759 7.24036 19.3992 6.21849C18.7966 5.84389 18.2769 5.3501 17.872 4.76743Z" fill="#FF9F41"/>
<path d="M12.7069 16.0597C12.7416 15.8453 12.596 15.6433 12.3816 15.6086C12.1672 15.5739 11.9653 15.7195 11.9305 15.9339C11.8958 16.1483 12.0415 16.3502 12.2559 16.385C12.4702 16.4197 12.6722 16.274 12.7069 16.0597Z" fill="#B250B5"/>
<path d="M12.3098 7.5C9.99527 7.69303 9.5029 4.79939 9.48865 4.7115C9.54257 4.88524 9.60582 5.05594 9.67812 5.22286C10.5815 7.29985 13.6578 6.69108 13.7 4.42641C13.7 4.40091 13.7006 4.37485 13.7006 4.34803C13.7007 4.34822 14.6594 7.30421 12.3098 7.5Z" fill="#FF8641"/>
</g>
<defs>
<clipPath id="clip0_6213_180">
<rect width="24" height="24" fill="white"/>
</clipPath>
</defs>
</svg>
