<svg width="26" height="24" viewBox="0 0 26 24" fill="none" xmlns="http://www.w3.org/2000/svg">
<path d="M23.9589 4.73438L19.3125 0.0879844C19.2373 0.0608853 19.158 0.0469776 19.0781 0.046875H7.35938C6.45473 0.046875 5.71875 0.782859 5.71875 1.6875V22.3125C5.71875 23.2171 6.45473 23.9531 7.35938 23.9531H22.3594C23.264 23.9531 24 23.2171 24 22.3125V4.96875C24 4.88803 23.9853 4.80905 23.9589 4.73438Z" fill="#D3D3D3"/>
<path d="M0.411891 23.5412C0.961078 24.0904 1.85147 24.0904 2.40061 23.5412L8.65692 17.2849L6.6682 15.2962L0.411891 21.5525C-0.137297 22.1017 -0.137297 22.992 0.411891 23.5412Z" fill="#F97316"/>
<path d="M0.411865 23.5412C0.961053 24.0904 1.85144 24.0904 2.40058 23.5412L8.6569 17.2849L7.66254 16.2906L0.411865 23.5412Z" fill="#F97316"/>
<path d="M23.7941 4.47159L19.5753 0.252842C19.5011 0.179004 19.4113 0.12268 19.3125 0.0879822V4.03125C19.3125 4.41956 19.6273 4.73437 20.0156 4.73437H23.9589C23.9243 4.63557 23.868 4.54578 23.7941 4.47159Z" fill="#F97316"/>
<path d="M16.2656 5.67188H9.23438C8.84606 5.67188 8.53125 5.35706 8.53125 4.96875C8.53125 4.58044 8.84606 4.26562 9.23438 4.26562H16.2656C16.6539 4.26562 16.9688 4.58044 16.9688 4.96875C16.9688 5.35706 16.6539 5.67188 16.2656 5.67188Z" fill="white"/>
<path d="M20.4844 19.7344H16.7344C16.3461 19.7344 16.0312 19.4196 16.0312 19.0312C16.0312 18.6429 16.3461 18.3281 16.7344 18.3281H20.4844C20.8727 18.3281 21.1875 18.6429 21.1875 19.0312C21.1875 19.4196 20.8727 19.7344 20.4844 19.7344Z" fill="white"/>
<path d="M20.4844 8.48438H10.5469C10.1586 8.48438 9.84375 8.16956 9.84375 7.78125C9.84375 7.39294 10.1586 7.07812 10.5469 7.07812H20.4844C20.8727 7.07812 21.1875 7.39294 21.1875 7.78125C21.1875 8.16956 20.8727 8.48438 20.4844 8.48438ZM20.4844 11.2969H10.5469C10.1586 11.2969 9.84375 10.9821 9.84375 10.5938C9.84375 10.2054 10.1586 9.89062 10.5469 9.89062H20.4844C20.8727 9.89062 21.1875 10.2054 21.1875 10.5938C21.1875 10.9821 20.8727 11.2969 20.4844 11.2969Z" fill="white"/>
<path d="M21.1875 10.5938C21.1875 10.2054 20.8727 9.89062 20.4844 9.89062H14.8594V11.2969H20.4844C20.8727 11.2969 21.1875 10.9821 21.1875 10.5938Z" fill="white"/>
<path d="M20.4844 14.1094H10.5469C10.1586 14.1094 9.84375 13.7946 9.84375 13.4062C9.84375 13.0179 10.1586 12.7031 10.5469 12.7031H20.4844C20.8727 12.7031 21.1875 13.0179 21.1875 13.4062C21.1875 13.7946 20.8727 14.1094 20.4844 14.1094Z" fill="white"/>
<path d="M20.4844 14.1094C20.8727 14.1094 21.1875 13.7946 21.1875 13.4062C21.1875 13.0179 20.8727 12.7031 20.4844 12.7031H14.8594V14.1094H20.4844Z" fill="white"/>
<path d="M20.4844 16.9219H10.5469C10.1586 16.9219 9.84375 16.6071 9.84375 16.2188C9.84375 15.8304 10.1586 15.5156 10.5469 15.5156H20.4844C20.8727 15.5156 21.1875 15.8304 21.1875 16.2188C21.1875 16.6071 20.8727 16.9219 20.4844 16.9219Z" fill="white"/>
<path d="M20.4844 16.9219C20.8727 16.9219 21.1875 16.6071 21.1875 16.2188C21.1875 15.8304 20.8727 15.5156 20.4844 15.5156H14.8594V16.9219H20.4844Z" fill="white"/>
<path d="M10.5469 19.0312C13.6535 19.0312 16.1719 16.5129 16.1719 13.4062C16.1719 10.2996 13.6535 7.78125 10.5469 7.78125C7.44027 7.78125 4.92188 10.2996 4.92188 13.4062C4.92188 16.5129 7.44027 19.0312 10.5469 19.0312Z" fill="white"/>
<path d="M14.5225 9.43063L6.57129 17.3819C7.58984 18.4004 8.99609 19.0312 10.5469 19.0312C13.6486 19.0312 16.1719 16.5079 16.1719 13.4062C16.1719 11.8554 15.5411 10.4492 14.5225 9.43063Z" fill="white"/>
<path d="M11.4844 14.5781H9.60941C7.88582 14.5781 6.42885 15.8122 6.14502 17.5126L7.90579 18.6069L9.66655 19.5432H11.4273L13.1881 18.6069L14.9488 17.5126C14.665 15.8122 13.2081 14.5781 11.4844 14.5781Z" fill="#82AEE3"/>
<path d="M10.5469 15.5156C8.99606 15.5156 7.73438 14.2539 7.73438 12.7031C7.73438 11.1523 8.99606 9.89062 10.5469 9.89062C12.0977 9.89062 13.3594 11.1523 13.3594 12.7031C13.3594 14.2539 12.0977 15.5156 10.5469 15.5156Z" fill="#FFCEBF"/>
<path d="M10.5469 19.7344C7.05755 19.7344 4.21875 16.8956 4.21875 13.4062C4.21875 9.91692 7.05755 7.07812 10.5469 7.07812C14.0362 7.07812 16.875 9.91692 16.875 13.4062C16.875 16.8956 14.0362 19.7344 10.5469 19.7344ZM10.5469 8.48438C7.83295 8.48438 5.625 10.6923 5.625 13.4062C5.625 16.1202 7.83295 18.3281 10.5469 18.3281C13.2608 18.3281 15.4688 16.1202 15.4688 13.4062C15.4688 10.6923 13.2608 8.48438 10.5469 8.48438Z" fill="#F97316"/>
<path d="M15.0195 8.93369L14.0256 9.92758C14.9167 10.8188 15.4687 12.0493 15.4687 13.4063C15.4687 16.1202 13.2608 18.3281 10.5469 18.3281C9.18993 18.3281 7.95947 17.7761 7.06823 16.8849L6.07434 17.8788C7.22015 19.0247 8.80218 19.7344 10.5469 19.7344C14.0362 19.7344 16.875 16.8956 16.875 13.4063C16.875 11.6616 16.1653 10.0795 15.0195 8.93369Z" fill="#F97316"/>
<path d="M16.9688 4.96875C16.9688 4.58044 16.6539 4.26562 16.2656 4.26562H14.8594V5.67188H16.2656C16.6539 5.67188 16.9688 5.35706 16.9688 4.96875ZM21.1875 7.78125C21.1875 7.39294 20.8727 7.07812 20.4844 7.07812H14.8594V8.48438H20.4844C20.8727 8.48438 21.1875 8.16956 21.1875 7.78125Z" fill="white"/>
</svg>
