<svg width="134" height="23" viewBox="0 0 134 23" fill="none" xmlns="http://www.w3.org/2000/svg">
<path d="M0 12.2192H2.61888V13.3064C2.61888 15.5587 3.14573 17.3211 4.19866 18.5938C5.25236 19.8673 6.9458 20.5029 9.27975 20.5029C11.6137 20.5029 13.3079 19.8816 14.3608 18.6374C15.4145 17.394 15.9406 15.6561 15.9406 13.4237V0.587224H18.6163V13.5117C18.6163 15.6664 18.2224 17.4479 17.4352 18.8577C16.6472 20.2675 15.5512 21.3104 14.1473 21.9864C12.7427 22.6624 11.1199 23 9.27975 23C7.43962 23 5.82068 22.6569 4.42599 21.9714C3.0313 21.2859 1.94458 20.2382 1.16659 18.8284C0.388608 17.4186 0 15.6173 0 13.4237V12.2192ZM31.3705 23C29.4912 23 27.8408 22.637 26.4169 21.9127C24.9938 21.1884 23.8833 20.1748 23.0861 18.872C22.2889 17.57 21.8903 16.0666 21.8903 14.3628C21.8903 12.659 22.2889 11.1319 23.0861 9.83937C23.8833 8.54684 24.993 7.53327 26.4169 6.79943C27.84 6.06481 29.4912 5.69789 31.3705 5.69789C33.2498 5.69789 34.9333 6.06481 36.3664 6.79943C37.7987 7.53406 38.9138 8.54684 39.711 9.83937C40.5082 11.1319 40.9068 12.64 40.9068 14.3628C40.9068 16.0857 40.5082 17.57 39.711 18.872C38.9138 20.1748 37.7987 21.1884 36.3664 21.9127C34.9333 22.637 33.2675 23 31.3705 23ZM31.3997 20.7676C32.8036 20.7676 34.0186 20.5029 35.0431 19.9743C36.0676 19.4457 36.8602 18.7016 37.4201 17.7419C37.9799 16.783 38.2595 15.6466 38.2595 14.3343C38.2595 13.0219 37.9792 11.9164 37.4201 10.956C36.8602 9.99707 36.0676 9.25214 35.0431 8.72356C34.0186 8.19498 32.8036 7.9303 31.3997 7.9303C29.9958 7.9303 28.8046 8.19498 27.7701 8.72356C26.7356 9.25214 25.9385 9.99628 25.3786 10.956C24.8187 11.9157 24.5384 13.0418 24.5384 14.3343C24.5384 15.6268 24.8179 16.7822 25.3786 17.7419C25.9385 18.7016 26.7349 19.4457 27.7701 19.9743C28.8046 20.5029 30.0142 20.7676 31.3997 20.7676ZM46.7997 10.8918C46.9963 10.5153 47.2098 10.1556 47.4402 9.81084C48.3034 8.51831 49.3517 7.51028 50.5859 6.78517C51.8193 6.06085 53.1764 5.69789 54.6571 5.69789C56.213 5.69789 57.5985 6.06481 58.8135 6.79943C60.0277 7.53406 60.9816 8.54684 61.6743 9.83937C62.367 11.1319 62.7134 12.64 62.7134 14.3628C62.7134 16.0857 62.367 17.5644 61.6743 18.8569C60.9816 20.1495 60.0277 21.163 58.8135 21.8977C57.5985 22.6323 56.213 22.9992 54.6571 22.9992C53.1011 22.9992 51.8201 22.6363 50.5859 21.9119C49.3525 21.1876 48.3034 20.1788 47.4402 18.8863C47.2098 18.5423 46.9963 18.1825 46.7997 17.8077V22.6164H44.2092V0H46.7997V10.8918ZM60.0653 14.3636C60.0653 13.0909 59.8134 11.9743 59.3112 11.0154C58.8081 10.0565 58.1154 9.30682 57.2329 8.76794C56.3505 8.22985 55.3398 7.96041 54.2009 7.96041C53.0619 7.96041 52.0374 8.22985 51.0697 8.76794C50.1021 9.30682 49.248 10.0557 48.5077 11.0154C47.7673 11.9751 47.1599 13.0909 46.686 14.3636C47.1599 15.6173 47.7681 16.7236 48.5077 17.6833C49.248 18.643 50.1021 19.3919 51.0697 19.93C52.0374 20.4688 53.0811 20.7375 54.2009 20.7375C55.3206 20.7375 56.3497 20.468 57.2329 19.93C58.1154 19.3919 58.8081 18.6422 59.3112 17.6833C59.8142 16.7244 60.0653 15.6173 60.0653 14.3636ZM65.5596 11.1034H71.7658V13.4237H65.5596V11.1034ZM74.5836 15.4802H77.2593C77.3922 16.5183 77.79 17.4289 78.4551 18.2119C79.1194 18.9956 80.0019 19.6027 81.1024 20.033C82.203 20.4641 83.4648 20.6788 84.8886 20.6788C87.0329 20.6788 88.7363 20.3024 89.9982 19.548C91.26 18.7943 91.8913 17.7609 91.8913 16.4486C91.8913 15.4501 91.4973 14.6861 90.7101 14.1576C89.9221 13.629 88.542 13.247 86.5683 13.0116L82.4687 12.4831C79.8682 12.17 77.9997 11.5281 76.8607 10.5589C75.7218 9.58974 75.1527 8.28216 75.1527 6.63777C75.1527 5.32622 75.5321 4.18506 76.2917 3.21507C77.0504 2.24587 78.118 1.50174 79.4942 0.982669C80.8697 0.463598 82.4687 0.204459 84.2912 0.204459C86.1136 0.204459 87.7925 0.493712 89.2163 1.07143C90.6395 1.64914 91.773 2.45192 92.6178 3.47976C93.4618 4.50839 93.9226 5.71771 93.9987 7.10771H91.323C91.2093 6.16783 90.8483 5.35951 90.2416 4.68432C89.6341 4.00834 88.8185 3.47976 87.7932 3.09778C86.7687 2.71581 85.5822 2.52483 84.2351 2.52483C82.2805 2.52483 80.7192 2.88223 79.5526 3.59704C78.3852 4.31186 77.8015 5.30562 77.8015 6.57833C77.8015 7.55783 78.1855 8.31148 78.9543 8.84006C79.7231 9.36864 81.0371 9.75061 82.8972 9.98598L86.9392 10.5146C88.7985 10.7689 90.2885 11.1168 91.4082 11.5575C92.528 11.9981 93.3298 12.5956 93.8136 13.3492C94.2974 14.1029 94.5394 15.0578 94.5394 16.2132C94.5394 17.604 94.1361 18.8086 93.3298 19.8261C92.5226 20.8445 91.3944 21.6282 89.9421 22.1758C88.4906 22.7234 86.7864 22.9984 84.8326 22.9984C82.8788 22.9984 81.1462 22.6798 79.6371 22.0435C78.1287 21.4071 76.9276 20.5259 76.0359 19.3998C75.1435 18.2745 74.6597 16.9669 74.5844 15.4786L74.5836 15.4802ZM108.41 16.1926C108.66 17.4487 108.197 18.4766 107.376 18.4884C106.556 18.5003 105.689 17.4915 105.44 16.2354C105.191 14.9794 105.654 13.9515 106.474 13.9396C107.294 13.9277 108.161 14.9366 108.41 16.1926ZM133.977 8.4351C133.535 5.63291 130.234 7.19963 129.515 7.52376C128.196 6.10523 126.331 5.05282 124.101 5.36189C120.651 5.83975 117.417 6.65996 116.544 9.34328C115.305 9.56834 113.776 9.55091 112.702 9.49543C111.538 7.27333 109.091 4.91889 105.894 5.36189C102.487 5.83341 99.291 6.64015 98.3701 9.24422C97.2373 8.76319 94.6983 7.90256 94.3143 10.3355C94.0463 12.0314 96.2267 9.95824 98.1067 10.9766C98.1198 12.0432 98.4039 13.3215 99.0237 14.8557C101.976 22.1576 104.326 23.2861 107.005 22.9477C109.684 22.6093 114.33 20.6915 114.33 18.4916C114.33 16.2917 113.236 16.0096 113.236 16.0096C113.236 16.0096 107.934 23.004 104.053 18.83C100.172 14.656 98.907 8.64273 104.738 7.79637C108.517 7.24798 109.936 9.10237 110.831 10.7634C109.801 10.1461 108.475 9.81005 106.936 10.0224C103.816 10.4512 102.136 12.1764 102.242 15.0372C102.256 15.4081 102.752 15.5071 102.895 15.1664C104.972 10.211 112.414 13.1067 112.745 13.0766C113.425 13.0148 113.593 12.2089 113.338 11.1382C114.354 11.2254 115.567 11.1263 116.314 11.0431C116.338 12.0963 116.623 13.3524 117.231 14.8557C120.182 22.1576 122.533 23.2861 125.212 22.9477C127.89 22.6093 132.536 20.6915 132.536 18.4916C132.536 16.2917 131.443 16.0096 131.443 16.0096C131.443 16.0096 126.141 23.004 122.26 18.83C118.379 14.656 117.114 8.64273 122.945 7.79637C126.723 7.24798 128.142 9.10237 129.038 10.7634C128.008 10.1461 126.682 9.81005 125.143 10.0224C122.022 10.4512 120.343 12.1764 120.449 15.0372C120.463 15.4081 120.959 15.5071 121.102 15.1664C123.179 10.211 130.621 13.1067 130.951 13.0766C132.061 12.976 131.809 10.8926 130.573 8.909C132.351 8.32416 134.227 10.0153 133.977 8.4351ZM124.68 13.9396C123.86 13.9515 123.398 14.9794 123.647 16.2354C123.896 17.4915 124.762 18.5003 125.583 18.4884C126.403 18.4766 126.865 17.4487 126.616 16.1926C126.367 14.9366 125.501 13.9277 124.68 13.9396Z" fill="white"/>
</svg>
